<?xml version="1.0" standalone="no"?>
<svg viewBox="0 0 200 200" xmlns="http://www.w3.org/2000/svg">
  <path fill="#F2F4F8" d="M49,-77.2C62.3,-67.6,71.1,-52.1,73.1,-36.6C75.1,-21.2,70.2,-5.9,65.5,7.6C60.7,21.1,56.1,32.8,48.8,43.5C41.5,54.2,31.5,63.9,19.9,66.9C8.2,70,-5.1,66.4,-19.1,63.2C-33.2,60,-47.9,57.1,-61.2,49C-74.6,40.9,-86.5,27.5,-89.1,12.5C-91.8,-2.5,-85.1,-19.2,-74.7,-30.8C-64.2,-42.4,-50,-49.1,-36.9,-58.7C-23.9,-68.4,-11.9,-81.1,3,-85.7C17.8,-90.3,35.7,-86.8,49,-77.2Z" transform="translate(100 100)" />
</svg>
