<?xml version="1.0" standalone="no"?>
<svg viewBox="0 0 200 200" xmlns="http://www.w3.org/2000/svg">
  <path fill="#F2F4F8" d="M47.8,-73C61.9,-65.3,73.2,-52,81.1,-36.5C89,-21,93.4,-3.5,89.6,11.8C85.8,27.2,73.7,40.3,60.5,48.5C47.3,56.7,33,60.1,18.1,66.7C3.3,73.3,-12,83.1,-23.5,79.8C-35,76.5,-42.8,60.2,-51,46.5C-59.1,32.9,-67.7,21.9,-72.8,8.4C-77.9,-5.1,-79.6,-21.1,-73,-32.4C-66.3,-43.6,-51.3,-50.1,-37.8,-58C-24.2,-65.9,-12.1,-75.3,2.4,-79C16.9,-82.7,33.7,-80.7,47.8,-73Z" transform="translate(100 100)" />
</svg>
