<?xml version="1.0" standalone="no"?>
<svg viewBox="0 0 200 200" xmlns="http://www.w3.org/2000/svg">
  <path fill="#F2F4F8" d="M41.6,-63.3C53.1,-57.3,61.1,-44.4,66.4,-30.9C71.6,-17.4,74,-3.2,72.7,10.9C71.4,25,66.3,39,57.7,51.2C49,63.3,36.8,73.6,22,80.7C7.1,87.7,-10.5,91.6,-22.7,84.7C-35,77.8,-42,60.1,-51,46.2C-60,32.2,-70.9,22,-76.8,8.5C-82.6,-4.9,-83.3,-21.7,-76,-33.4C-68.6,-45.2,-53.2,-52,-39.2,-56.8C-25.2,-61.7,-12.6,-64.6,1.2,-66.5C15,-68.4,30,-69.3,41.6,-63.3Z" transform="translate(100 100)" />
</svg>
