<?xml version="1.0" standalone="no"?>
<svg viewBox="0 0 200 200" xmlns="http://www.w3.org/2000/svg">
  <path fill="#F2F4F8" d="M41,-65.4C53.3,-55.8,63.8,-44.8,67.2,-32.2C70.6,-19.6,66.9,-5.3,64.7,9.3C62.6,23.8,62.1,38.6,55.8,51.6C49.5,64.5,37.5,75.7,23.2,80.9C8.8,86,-7.9,85,-23.1,80C-38.2,74.9,-51.7,65.7,-58.7,53.3C-65.6,40.9,-66.1,25.2,-65.7,11C-65.3,-3.2,-64.2,-16,-60.9,-29.8C-57.7,-43.6,-52.4,-58.4,-41.9,-68.9C-31.4,-79.3,-15.7,-85.3,-0.7,-84.2C14.3,-83.1,28.6,-74.9,41,-65.4Z" transform="translate(100 100)" />
</svg>
