<?xml version="1.0" standalone="no"?>
<svg viewBox="0 0 200 200" xmlns="http://www.w3.org/2000/svg">
  <path fill="#F2F4F8" d="M48.4,-77.5C60.8,-67.2,67.9,-50.7,72.7,-34.8C77.6,-18.8,80.3,-3.4,78.3,11.3C76.3,26.1,69.6,40.3,60.1,53.3C50.7,66.2,38.5,78,23.5,84.3C8.5,90.7,-9.4,91.7,-23.1,84.8C-36.9,78,-46.5,63.3,-56.9,50C-67.3,36.7,-78.4,24.8,-80.1,11.7C-81.8,-1.5,-74.1,-15.9,-65.7,-28.3C-57.3,-40.6,-48.4,-51,-37.3,-62C-26.3,-73,-13.1,-84.6,2.4,-88.3C17.9,-92,35.9,-87.9,48.4,-77.5Z" transform="translate(100 100)" />
</svg>
